<svg xmlns="http://www.w3.org/2000/svg" viewBox="0 0 40 40" fill="none">
  <!-- House body -->
  <path d="M20 4L4 16v20h10V24h12v12h10V16L20 4z" fill="currentColor" opacity="0.15"/>
  <!-- House outline -->
  <path d="M20 4L4 16v20h10V24h12v12h10V16L20 4z" stroke="currentColor" stroke-width="2.2" stroke-linejoin="round" stroke-linecap="round"/>
  <!-- Shield check -->
  <circle cx="28" cy="28" r="8" fill="white"/>
  <path d="M28 21c-2.5 0-5 .9-5 .9v4.6c0 2.8 2.1 5.4 5 6.5 2.9-1.1 5-3.7 5-6.5v-4.6S30.5 21 28 21z" fill="currentColor" opacity="0.9"/>
  <path d="M25.5 28l1.8 1.8 3.2-3.2" stroke="white" stroke-width="1.8" stroke-linecap="round" stroke-linejoin="round"/>
</svg>
